<svg width="626" height="326" viewBox="0 0 626 326" fill="none" xmlns="http://www.w3.org/2000/svg">
<g clip-path="url(#clip0)">
<path d="M79.5 76.72H115.76V109.84H79.5V199.1C79.5 207.47 80.89 213.05 83.68 215.83C86.47 218.62 92.05 220.01 100.42 220.01C106 220.01 111.11 219.55 115.76 218.62V257.32C111.58 258.02 106.92 258.48 101.81 258.71C96.7 258.94 91.7 259.06 86.82 259.06C79.15 259.06 71.88 258.54 65.03 257.49C58.17 256.45 52.13 254.35 46.9 251.21C41.67 248.07 37.54 243.71 34.52 238.14C31.5 232.56 29.99 225.24 29.99 216.18V109.85H0V76.72H29.99V22.68H79.5V76.72Z" fill="#1C204D"/>
<path d="M133.88 132.16C134.58 120.54 137.48 110.89 142.59 103.22C147.7 95.55 154.21 89.39 162.12 84.74C170.02 80.09 178.86 76.78 188.62 74.8C198.38 72.83 208.37 71.84 218.61 71.84C227.68 71.84 236.85 72.48 246.15 73.76C255.44 75.04 263.93 77.54 271.6 81.25C279.27 84.97 285.55 90.2 290.43 96.94C295.31 103.68 297.75 112.4 297.75 123.09V216.88C297.75 225.02 298.21 232.81 299.14 240.24C300.07 247.68 301.7 253.26 304.02 256.98H253.81C252.88 254.19 252.12 251.35 251.54 248.44C250.96 245.54 250.55 242.57 250.32 239.55C242.42 247.69 233.12 253.44 222.43 256.81C211.73 260.18 200.81 261.87 189.66 261.87C181.06 261.87 173.04 260.76 165.6 258.56C158.16 256.35 151.65 253.04 146.07 248.62C140.49 244.21 136.13 238.63 133 231.89C129.86 225.15 128.29 217.13 128.29 207.83C128.29 197.6 130.03 189.18 133.52 182.55C137.01 175.93 141.65 170.64 147.47 166.69C153.28 162.74 159.85 159.78 167.17 157.8C174.49 155.83 181.99 154.26 189.66 153.09C197.33 151.93 204.65 151 211.63 150.3C218.6 149.6 224.82 148.56 230.28 147.16C235.74 145.76 240.1 143.73 243.35 141.06C246.6 138.39 248.23 134.49 248.23 129.38C248.23 124.03 247.36 119.79 245.61 116.65C243.87 113.51 241.54 111.07 238.64 109.33C235.73 107.59 232.36 106.43 228.53 105.84C224.69 105.26 220.56 104.97 216.15 104.97C206.62 104.97 199.01 107.06 193.31 111.25C187.61 115.43 184.3 122.41 183.37 132.17H133.88V132.16ZM248.24 168.77C246.15 170.63 243.53 172.08 240.39 173.13C237.25 174.18 233.88 175.05 230.28 175.75C226.67 176.45 222.84 177.03 218.77 177.49C214.7 177.96 210.81 178.54 207.09 179.23C203.14 179.93 199.42 180.86 195.93 182.02C192.44 183.19 189.36 184.75 186.69 186.73C184.02 188.71 181.86 191.26 180.24 194.4C178.61 197.54 177.8 201.32 177.8 205.73C177.8 210.38 178.61 214.16 180.24 217.06C181.86 219.97 184.07 222.29 186.86 224.03C189.65 225.77 192.9 226.99 196.62 227.69C200.34 228.39 204.17 228.74 208.13 228.74C217.89 228.74 225.44 227.12 230.79 223.86C236.13 220.61 240.08 216.71 242.64 212.18C245.2 207.65 246.76 203.06 247.35 198.41C247.93 193.76 248.22 190.04 248.22 187.25V168.77H248.24Z" fill="#1C204D"/>
<path d="M491.96 245.48C491.96 250.36 491.55 255.77 490.74 261.69C489.92 267.62 488.35 273.54 486.03 279.47C483.7 285.4 480.45 291.09 476.27 296.55C472.09 302.01 466.51 306.89 459.53 311.19C452.56 315.49 444.07 318.92 434.08 321.48C424.08 324.03 412.23 325.31 398.52 325.31C389.68 325.31 380.68 324.2 371.5 322C362.32 319.79 353.95 316.36 346.4 311.71C338.85 307.06 332.57 301.08 327.57 293.76C322.57 286.44 319.73 277.66 319.03 267.43H368.19C370.51 276.72 375.04 283.17 381.79 286.78C388.53 290.38 396.31 292.18 405.15 292.18C418.86 292.18 428.97 288 435.48 279.63C441.99 271.26 445.12 260.57 444.89 247.55V223.84H444.19C438.84 233.37 431.23 240.4 421.35 244.93C411.47 249.46 401.07 251.73 390.15 251.73C376.67 251.73 365.05 249.35 355.28 244.58C345.52 239.82 337.5 233.31 331.22 225.05C324.95 216.8 320.35 207.15 317.45 196.11C314.54 185.07 313.09 173.39 313.09 161.07C313.09 149.45 314.77 138.23 318.15 127.43C321.52 116.62 326.46 107.09 332.97 98.84C339.47 90.59 347.56 84.02 357.2 79.14C366.84 74.26 377.95 71.82 390.5 71.82C402.36 71.82 412.75 74.03 421.7 78.44C430.65 82.86 438.14 90.29 444.19 100.75H444.89V76.72H491.96V245.48ZM402.7 214.45C409.67 214.45 415.83 213.05 421.18 210.27C426.52 207.48 430.94 203.77 434.43 199.11C437.92 194.46 440.53 189.17 442.28 183.24C444.02 177.31 444.89 171.1 444.89 164.59C444.89 157.39 444.19 150.41 442.8 143.67C441.4 136.93 439.08 131 435.83 125.89C432.57 120.78 428.21 116.71 422.75 113.69C417.29 110.67 410.6 109.16 402.7 109.16C395.73 109.16 389.74 110.56 384.74 113.34C379.74 116.13 375.56 119.91 372.19 124.67C368.82 129.44 366.38 134.9 364.87 141.06C363.35 147.22 362.6 153.67 362.6 160.41C362.6 166.92 363.24 173.37 364.52 179.76C365.8 186.16 368.01 191.91 371.14 197.02C374.28 202.14 378.4 206.32 383.52 209.57C388.64 212.82 395.03 214.45 402.7 214.45Z" fill="#1C204D"/>
<path d="M575.35 83.82L574.15 57.21L600.76 58.41L625.68 83.33L600.27 108.74L575.35 83.82Z" fill="#1C204D"/>
<path d="M566.91 83.82L568.11 57.21L541.51 58.41L516.58 83.33L541.99 108.74L566.91 83.82Z" fill="#1C204D"/>
<path d="M566.91 24.92L568.11 51.53L541.51 50.33L516.58 25.41L541.99 0L566.91 24.92Z" fill="#1C204D"/>
<path d="M575.35 24.92L574.15 51.53L600.76 50.33L625.68 25.41L600.27 0L575.35 24.92Z" fill="#1C204D"/>
</g>
<defs>
<clipPath id="clip0">
<rect width="625.68" height="325.32" fill="white"/>
</clipPath>
</defs>
</svg>
