<svg width="185" height="96" viewBox="0 0 185 96" fill="none" xmlns="http://www.w3.org/2000/svg">
<path d="M23.5064 22.6404H34.2277V32.4142H23.5064V58.7551C23.5064 61.2251 23.9174 62.8718 24.7424 63.6922C25.5673 64.5155 27.2172 64.9257 29.692 64.9257C31.3419 64.9257 32.8528 64.7899 34.2277 64.5155V75.936C32.9918 76.1426 31.6139 76.2783 30.103 76.3462C28.5921 76.4141 27.1137 76.4495 25.6708 76.4495C23.4029 76.4495 21.2534 76.296 19.228 75.9862C17.1996 75.6792 15.4137 75.0595 13.8673 74.1329C12.3209 73.2063 11.0998 71.9196 10.2068 70.2759C9.31387 68.6292 8.86739 66.4691 8.86739 63.7954V32.4171H0V22.6404H8.86739V6.69299H23.5064V22.6404Z" fill="#52647A"/>
<path d="M39.5855 39.0008C39.7924 35.5717 40.6499 32.724 42.1608 30.4605C43.6717 28.1971 45.5966 26.3793 47.9354 25.007C50.2713 23.6348 52.8851 22.658 55.7709 22.0737C58.6567 21.4923 61.6105 21.2002 64.6383 21.2002C67.3201 21.2002 70.0315 21.3891 72.7813 21.7668C75.5281 22.1445 78.0384 22.8823 80.3063 23.9771C82.5741 25.0749 84.431 26.6183 85.8739 28.6073C87.3168 30.5963 88.0383 33.1696 88.0383 36.3242V64.0019C88.0383 66.4041 88.1743 68.7029 88.4493 70.8956C88.7243 73.0911 89.2062 74.7378 89.8922 75.8356H75.0462C74.7712 75.0122 74.5465 74.1741 74.375 73.3154C74.2035 72.4596 74.0823 71.5831 74.0143 70.6919C71.6784 73.0941 68.9286 74.7909 65.7678 75.7854C62.604 76.7799 59.3752 77.2786 56.0784 77.2786C53.5356 77.2786 51.1642 76.9511 48.9644 76.3018C46.7645 75.6497 44.8397 74.6729 43.1898 73.3685C41.5399 72.0671 40.2507 70.4204 39.3253 68.4314C38.3968 66.4424 37.9326 64.0757 37.9326 61.3313C37.9326 58.3124 38.4471 55.8276 39.479 53.8711C40.5109 51.9175 41.8829 50.3564 43.6037 49.1907C45.3216 48.0251 47.2642 47.1516 49.4286 46.5673C51.593 45.9859 53.8105 45.5226 56.0784 45.1773C58.3463 44.835 60.5106 44.5606 62.5745 44.354C64.6353 44.1474 66.4744 43.8405 68.0889 43.4274C69.7033 43.0142 70.9924 42.4152 71.9534 41.6272C72.9143 40.8393 73.3963 39.6884 73.3963 38.1804C73.3963 36.6016 73.139 35.3504 72.6216 34.4238C72.1071 33.4971 71.4182 32.7771 70.5607 32.2636C69.7003 31.7501 68.7039 31.4078 67.5714 31.2337C66.436 31.0625 65.2149 30.977 63.9109 30.977C61.0931 30.977 58.843 31.5937 57.1576 32.8302C55.4723 34.0637 54.4936 36.1236 54.2186 39.0038H39.5855V39.0008ZM73.3992 49.8045C72.7813 50.3534 72.0066 50.7813 71.0782 51.0912C70.1497 51.401 69.1533 51.6578 68.0889 51.8644C67.0215 52.0709 65.889 52.2421 64.6856 52.3778C63.4822 52.5165 62.332 52.6877 61.2321 52.8913C60.0641 53.0979 58.9642 53.3723 57.9323 53.7147C56.9004 54.0599 55.9897 54.5203 55.2002 55.1046C54.4108 55.6889 53.7721 56.4414 53.2931 57.368C52.8112 58.2947 52.5717 59.4101 52.5717 60.7115C52.5717 62.0838 52.8112 63.1993 53.2931 64.0551C53.7721 64.9138 54.4256 65.5985 55.2505 66.1119C56.0754 66.6254 57.0364 66.9854 58.1363 67.192C59.2362 67.3986 60.3687 67.5019 61.5396 67.5019C64.4254 67.5019 66.6578 67.0238 68.2396 66.0618C69.8186 65.1027 70.9865 63.9518 71.7434 62.615C72.5004 61.2781 72.9616 59.9236 73.1361 58.5514C73.3076 57.1792 73.3933 56.0814 73.3933 55.258V49.8045H73.3992Z" fill="#52647A"/>
<path d="M145.462 72.4419C145.462 73.882 145.341 75.4785 145.101 77.2256C144.859 78.9755 144.395 80.7225 143.709 82.4725C143.02 84.2225 142.059 85.9016 140.823 87.5128C139.587 89.1241 137.937 90.5642 135.873 91.8332C133.812 93.1021 131.302 94.1143 128.348 94.8698C125.391 95.6223 121.888 96 117.834 96C115.22 96 112.559 95.6724 109.845 95.0232C107.13 94.371 104.655 93.3588 102.423 91.9866C100.191 90.6144 98.3338 88.8497 96.8554 86.6895C95.377 84.5294 94.5373 81.9383 94.3303 78.9194H108.866C109.552 81.6609 110.891 83.5644 112.887 84.6297C114.88 85.6921 117.18 86.2232 119.794 86.2232C123.848 86.2232 126.837 84.9897 128.762 82.5197C130.687 80.0497 131.612 76.895 131.544 73.0528V66.0559H131.337C129.756 68.8682 127.505 70.9428 124.584 72.2796C121.663 73.6164 118.588 74.2863 115.359 74.2863C111.373 74.2863 107.937 73.584 105.049 72.1763C102.163 70.7717 99.7915 68.8505 97.9346 66.413C96.0807 63.9784 94.7206 61.1306 93.8631 57.8727C93.0027 54.6148 92.574 51.168 92.574 47.5323C92.574 44.1032 93.0707 40.7921 94.0701 37.605C95.0665 34.415 96.5272 31.6026 98.4521 29.168C100.374 26.7334 102.766 24.7946 105.616 23.3545C108.467 21.9144 111.752 21.1943 115.462 21.1943C118.969 21.1943 122.041 21.8465 124.688 23.1479C127.334 24.4523 129.549 26.6449 131.337 29.7317H131.544V22.6403H145.462V72.4419ZM119.07 63.2849C121.131 63.2849 122.952 62.8717 124.534 62.0514C126.113 61.228 127.42 60.1332 128.452 58.758C129.483 57.3858 130.255 55.8247 130.773 54.0747C131.287 52.3248 131.544 50.4922 131.544 48.571C131.544 46.4463 131.337 44.3865 130.926 42.3975C130.512 40.4085 129.826 38.6585 128.866 37.1506C127.902 35.6426 126.612 34.4415 124.998 33.5503C123.384 32.6591 121.406 32.2135 119.07 32.2135C117.009 32.2135 115.238 32.6266 113.759 33.447C112.281 34.2704 111.045 35.3858 110.049 36.7905C109.052 38.1982 108.331 39.8094 107.884 41.6273C107.435 43.4451 107.213 45.3485 107.213 47.3375C107.213 49.2586 107.402 51.1621 107.781 53.0478C108.159 54.9364 108.813 56.6333 109.738 58.1412C110.667 59.6522 111.885 60.8857 113.399 61.8448C114.912 62.8039 116.802 63.2849 119.07 63.2849Z" fill="#52647A"/>
<path d="M170.118 24.7355L169.764 16.8828L177.632 17.2369L185 24.5909L177.487 32.0895L170.118 24.7355Z" fill="#52647A"/>
<path d="M167.623 24.7355L167.978 16.8828L160.113 17.2369L152.741 24.5909L160.255 32.0895L167.623 24.7355Z" fill="#52647A"/>
<path d="M167.623 7.35397L167.978 15.2067L160.113 14.8525L152.741 7.49857L160.255 0L167.623 7.35397Z" fill="#52647A"/>
<path d="M170.118 7.35397L169.764 15.2067L177.632 14.8525L185 7.49857L177.487 0L170.118 7.35397Z" fill="#52647A"/>
</svg>
